<?xml version="1.0" encoding="UTF-8"?>
<svg id="Capa_1" xmlns="http://www.w3.org/2000/svg" version="1.1" viewBox="0 0 300 300">
  <!-- Generator: Adobe Illustrator 30.1.0, SVG Export Plug-In . SVG Version: 2.1.1 Build 136)  -->
  <defs>
    <style>
      .st0 {
        fill: #fff;
      }

      .st1 {
        fill: #09122b;
      }
    </style>
  </defs>
  <rect class="st0" width="300" height="300"/>
  <g>
    <path class="st1" d="M76.5,122.4h-19.8c0-2.8-2.3-5-5.1-5s-5.1,2.3-5.1,5h0v74.9c0,2.8-2.3,5-5.1,5h-14.7v-79.4c0-13.5,10.6-24.9,24.2-25.2,14-.4,25.6,10.8,25.6,24.7Z"/>
    <path class="st1" d="M136.4,172.3v29.8h-14.7c-2.8,0-5.1-2.3-5.1-5v-24.8h0c0-2.8-2.3-5-5.1-5s-5.1,2.3-5.1,5h0v5.2c0,11.9-8.5,21.9-19.8,24.2-1.6.3-3.3.5-5.1.5s-3.4-.2-5.1-.5c-11-2.3-19.4-11.8-19.8-23.4v-25.6h19.8v24.7c0,2.8,2.3,5,5.1,5s5.1-2.3,5.1-5h0v-4.7c0-13.5,10.6-24.9,24.2-25.2,14-.4,25.5,10.8,25.5,24.7Z"/>
    <path class="st1" d="M66.6,142.7c2.8,0,5.1-2.3,5.1-5s-2.3-5-5.1-5-5.1,2.3-5.1,5,2.3,5,5.1,5Z"/>
    <path class="st1" d="M273.2,172.9v29.3h-14.7c-2.8,0-5.1-2.3-5.1-5v-24.8h0c0-2.8-2.3-5-5.1-5s-5.1,2.3-5.1,5h0v29.8h-19.8v-29.8h0c0-2.8-2.3-5-5.1-5s-5.1,2.3-5.1,5h0v29.8h-14.7c-2.8,0-5.1-2.3-5.1-5v-24.3c0-13.7,11-25.2,24.7-25.2,5.7,0,10.9,1.8,15.1,5,4.2-3.1,9.4-5,15.1-5,13.8,0,24.7,11.6,24.7,25.2Z"/>
    <path class="st1" d="M187.8,190.1s0,0,0,0c0,0,0,.1-.1.2-2.1,3.5-5.1,6.4-8.7,8.5-.1,0-.2.1-.3.2,0,0-.2.1-.3.2-3.6,2-7.6,3.1-12,3.1-13.7,0-24.9-11.1-24.9-24.7s9.5-23,21.8-24.6h0c1-.1,2-.2,3.1-.2s2.1,0,3.1.2h0c8.1,1,15.1,5.9,18.8,12.8l-16.9,11.7-6.4,4.4-1.6,1.1h0c-1.3.9-2.1,2.4-2.1,4.1,0,2.8,2.3,5,5.1,5s.3,0,.4,0c.1,0,.3,0,.4,0,.1,0,.2,0,.4,0h0c.1,0,.2,0,.4-.1.1,0,.2,0,.4-.1.1,0,.2,0,.3-.2.2-.1.4-.2.6-.4l.2-.2,10.9-7.6.3-.2c1.6-1,3.6-1.1,5.3,0,2.4,1.4,3.2,4.5,1.8,6.9Z"/>
  </g>
</svg>